PathFileType	4	(X/Y/Z)	C:/Users/beibeiliu/ov580/test_trc/capture2\sequence.32_training_dense_right.trc
DataRate	CameraRate	NumFrames	NumMarkers	Units	OrigDataRate	OrigDataStartFrame	OrigNumFrames
120	120	12	19	mm	120	1	327
Frame#	Time	ThumbCMC			ThumbMCP			ThumbIP			ThumbTip			IndexMCP			IndexPIP			IndexTip			MiddleMCP			MiddlePIP			MiddleTip			RingMCP			RingPIP			RingTip			PinkyMCP			PinkyPIP			PinkyTip			BackHand1			BackHand2			BackHand3	
		X0	Y0	Z0	X1	Y1	Z1	X2	Y2	Z2	X3	Y3	Z3	X4	Y4	Z4	X5	Y5	Z5	X6	Y6	Z6	X7	Y7	Z7	X8	Y8	Z8	X9	Y9	Z9	X10	Y10	Z10	X11	Y11	Z11	X12	Y12	Z12	X13	Y13	Z13	X14	Y14	Z14	X15	Y15	Z15	X16	Y16	Z16	X17	Y17	Z17	X18	Y18	Z18	
0	0	121.418	-15.4244	107.257	98.3071	-27.1091	88.9953	85.5091	-33.1763	65.279	76.848	-38.1826	45.5484	135.201	-1.83256	34.2828	131.384	-6.20768	5.88297	128.254	-6.83878	-15.1351	164.865	-2.33137	29.8729	164.293	-6.78423	3.37758	170.875	-13.5877	-25.0423	182.875	-9.4333	34.7838	188.676	-14.1175	9.51467	195.687	-20.8924	-16.6852	201.51	-19.552	48.7966	213.234	-24.3239	30.96	227.647	-23.2813	15.1052	178.784	0.88794	84.849	176.022	4.98929	115.839	146.835	6.55026	98.5884	
1	0.00833333	119.34	-15.5419	102.441	102.839	-27.8912	89.8527	87.378	-33.3976	63.8718	74.5126	-38.8298	48.4561	135.168	-2.59247	34.4915	129.208	-4.66901	6.54623	131.94	-8.11461	-18.9862	161.108	-2.70465	30.4858	164.217	-7.84979	-0.572845	170.933	-13.8369	-26.8815	180.676	-8.98739	32.3079	192.48	-14.5528	13.0554	194.093	-20.7204	-16.2744	200.447	-19.8198	49.3907	213.695	-24.2219	29.7044	224.617	-23.8688	9.5436	178.296	0.251346	84.8431	176.175	3.89103	115.303	146.327	7.46173	95.336	
2	0.0166667	118.832	-15.5623	107.867	103.477	-28.3306	87.4718	86.6163	-33.4422	64.8996	78.0471	-38.4015	46.4528	136.195	-2.88218	34.1188	129.414	-4.94218	10.3458	133.479	-8.01285	-15.859	162.475	-3.21349	25.4866	164.773	-8.01537	-0.00488912	172.455	-14.8079	-28.0123	183.978	-9.6772	34.1867	189.049	-14.4318	12.6977	195.255	-21.9018	-14.8114	201.499	-18.8427	48.0502	213.103	-25.4409	31.9644	224.173	-24.1182	13.2339	179.863	0.0806378	83.7867	180.049	4.22591	112.703	148.909	7.45485	96.9327	
3	0.025	118.459	-15.2391	104.751	101.436	-27.47	90.2465	87.7019	-33.2188	63.3917	76.2008	-39.0866	45.9057	134.85	-3.00329	35.7992	130.158	-6.14473	5.89952	135.244	-8.78401	-17.7091	166.968	-3.37853	27.98	169.626	-8.76927	-0.713869	175.289	-15.9562	-26.0013	183.471	-8.62351	32.274	191.747	-14.5909	8.61165	194.8	-22.6812	-15.7638	201.728	-19.301	49.0987	211.884	-25.422	33.2267	227.37	-25.0427	9.83428	177.894	1.89874	83.2677	179.008	2.26425	115.158	146.088	6.51149	92.9608	
4	0.0333333	117.901	-14.7873	103.261	103.067	-27.847	88.9182	87.9603	-33.3653	64.6958	77.7165	-39.808	44.8795	136.775	-2.86372	31.8272	130.585	-5.34642	8.8539	135.992	-9.47317	-16.9384	162.343	-3.02248	30.6219	167.759	-9.46518	-0.879012	172.34	-14.8732	-24.9709	182.689	-10.0428	37.0091	189.394	-14.9302	7.64569	195.713	-22.4343	-17.55	202.947	-20.3874	51.8737	214.333	-24.9068	28.7797	227.669	-26.473	9.31207	178.666	0.817146	86.4029	182.264	3.93847	115.035	151.546	5.93775	96.937	
5	0.0416667	119.134	-16.0898	102.219	105.779	-29.0853	87.9794	91.2399	-34.9309	68.4152	80.174	-40.3258	47.8558	134.348	-3.94268	33.582	135.162	-6.46732	6.42195	130.289	-8.72275	-19.4552	165.233	-3.52602	30.7122	170.231	-8.39063	2.83277	171.956	-14.8324	-23.351	182.713	-9.69355	33.3963	192.795	-14.5879	11.2509	193.863	-22.5684	-13.5051	205.82	-20.1976	49.0165	212.354	-24.3781	31.8603	230.593	-25.0213	9.12355	183.432	-0.438509	84.0379	179.978	2.73932	112.137	151.76	5.55378	93.0424	
6	0.05	121.674	-16.7612	103.222	102.454	-28.0652	89.4134	86.8682	-34.1623	65.699	77.1313	-40.6132	48.5892	135.903	-3.66411	33.3846	130.178	-5.9007	6.51734	136.006	-8.72719	-18.2221	162.723	-2.57367	29.3229	167.773	-8.20511	2.58634	172.673	-15.1493	-25.1688	186.977	-9.32836	34.2423	193.974	-14.807	11.3148	197.562	-22.4035	-13.182	202.634	-19.9925	50.9131	216.887	-26.1979	31.0608	230.705	-25.8315	9.06922	179.884	1.29163	86.6508	177.68	2.85194	114.4	149.6	5.28572	93.799	
7	0.0583333	120.806	-16.3073	107.591	103.32	-27.8652	88.9679	88.8718	-33.8801	66.4908	77.8981	-39.3624	46.3564	134.549	-2.3595	33.309	134.084	-6.50225	4.79174	134.385	-8.3948	-20.6553	165.534	-3.42508	27.9285	168.65	-8.6034	1.28627	176.474	-15.7317	-28.597	188.178	-10.2017	33.8303	195.634	-15.2116	10.4778	195.456	-21.0495	-13.3049	203.238	-19.4693	52.5194	213.526	-24.6908	33.7595	231.24	-23.6181	12.8906	180.167	2.522	82.4474	178.812	3.91858	116.454	147.681	6.7241	96.8126	
8	0.0666667	124.328	-16.4146	102.598	104.287	-27.9388	89.3649	91.8982	-33.4264	68.1252	79.221	-39.1812	48.887	137.865	-2.94973	32.1074	134.108	-5.15764	6.6153	137.335	-7.91001	-15.8641	167.32	-2.91926	29.6029	171.062	-9.20161	-0.404248	174.281	-14.5579	-22.5642	185.507	-9.1876	37.6206	193.079	-14.761	13.4158	198.777	-21.5543	-15.3828	206.032	-19.5229	51.563	214.347	-24.9736	31.3299	231.983	-25.2182	16.4244	185.453	1.96373	84.7956	183.26	2.85764	113.973	152.291	5.60939	98.092	
9	0.075	122.504	-15.5294	107.156	104.686	-28.9609	88.6016	90.8883	-33.4166	68.2068	78.8108	-38.4865	47.1978	140.801	-2.6882	32.065	133.455	-5.97155	10.0976	136.781	-9.64498	-18.6353	165.322	-2.34939	26.6454	171.345	-9.19657	-0.198107	174.2	-14.0322	-23.6065	187.452	-9.96325	37.5647	192.926	-15.202	13.4231	198.015	-21.4619	-13.5402	208.972	-20.7579	52.0648	216.3	-25.3824	32.6105	229.277	-22.7189	14.0745	180.921	-0.752439	86.9243	183.84	1.36294	112.909	155.029	6.85604	98.7854	
10	0.0833333	125.88	-15.9551	103.405	103.55	-28.2262	86.2241	88.6071	-34.7143	66.4937	79.7456	-40.0275	45.8341	139.617	-2.9918	35.4976	134.104	-6.65748	5.74707	140.609	-8.74272	-16.5255	168.774	-4.20301	27.5548	174.669	-8.94604	3.60888	177.725	-15.7894	-23.7675	190.502	-10.8072	33.9787	195.651	-15.6512	12.6089	199.853	-22.131	-13.3142	210.337	-22.1076	52.0596	217.125	-25.8602	32.5704	232.708	-23.2362	11.3793	182.077	-0.780971	88.3582	183.126	2.74368	116.512	154.642	4.10148	98.6822	
11	0.0916667	124.901	-17.2611	107.804	109.662	-29.3562	87.8411	90.6538	-35.1454	63.1172	77.8944	-40.05	44.9547	138.496	-3.86394	33.2039	137.18	-6.68139	6.39124	138.674	-9.98713	-19.0766	166.424	-4.43966	30.5859	173.74	-9.51022	1.89301	175.173	-15.2857	-24.7369	190.185	-10.9683	34.8363	197.083	-17.0217	12.9883	199.242	-24.2436	-15.3648	207.47	-21.3069	47.7108	220.2	-26.4505	30.5365	234.712	-25.9356	13.581	185.421	-1.441	83.492	183.272	1.03684	114.911	151.652	3.93776	94.3655	
